<mxfile host="Electron" agent="Mozilla/5.0 (Windows NT 10.0; Win64; x64) AppleWebKit/537.36 (KHTML, like Gecko) draw.io/26.2.2 Chrome/134.0.6998.178 Electron/35.1.2 Safari/537.36" version="26.2.2">
  <diagram name="Page-1" id="e7e014a7-5840-1c2e-5031-d8a46d1fe8dd">
    <mxGraphModel dx="1428" dy="849" grid="1" gridSize="10" guides="1" tooltips="1" connect="1" arrows="1" fold="1" page="1" pageScale="1" pageWidth="1169" pageHeight="826" background="none" math="0" shadow="0">
      <root>
        <mxCell id="0" />
        <mxCell id="1" parent="0" />
        <mxCell id="2" value="Система" style="swimlane;whiteSpace=wrap" parent="1" vertex="1">
          <mxGeometry x="160" y="120" width="280" height="1120" as="geometry" />
        </mxCell>
        <mxCell id="7" value="Вывести форму &#xa;для авторизации" style="" parent="2" vertex="1">
          <mxGeometry x="80" y="110" width="120" height="50" as="geometry" />
        </mxCell>
        <mxCell id="3" value="Пользователь" style="swimlane;whiteSpace=wrap" parent="1" vertex="1">
          <mxGeometry x="440" y="120" width="490" height="1120" as="geometry" />
        </mxCell>
        <mxCell id="dzC-Ab5WEff3yVFOQwJt-41" value="Онлайн магазин" style="shape=umlFrame;whiteSpace=wrap;html=1;pointerEvents=0;width=140;height=30;" vertex="1" parent="1">
          <mxGeometry x="160" y="90" width="770" height="1150" as="geometry" />
        </mxCell>
        <mxCell id="dzC-Ab5WEff3yVFOQwJt-76" style="edgeStyle=orthogonalEdgeStyle;rounded=0;orthogonalLoop=1;jettySize=auto;html=1;entryX=1;entryY=0.5;entryDx=0;entryDy=0;" edge="1" parent="1" source="5" target="7">
          <mxGeometry relative="1" as="geometry" />
        </mxCell>
        <mxCell id="5" value="" style="ellipse;shape=startState;fillColor=#000000;strokeColor=#ff0000;" parent="1" vertex="1">
          <mxGeometry x="670" y="160" width="30" height="30" as="geometry" />
        </mxCell>
        <mxCell id="dzC-Ab5WEff3yVFOQwJt-78" style="edgeStyle=orthogonalEdgeStyle;rounded=0;orthogonalLoop=1;jettySize=auto;html=1;entryX=1;entryY=0.5;entryDx=0;entryDy=0;exitX=0.5;exitY=1;exitDx=0;exitDy=0;" edge="1" parent="1" source="8" target="dzC-Ab5WEff3yVFOQwJt-42">
          <mxGeometry relative="1" as="geometry" />
        </mxCell>
        <mxCell id="8" value="Ввести данные&#xa; для авторизации" style="" parent="1" vertex="1">
          <mxGeometry x="530" y="340" width="110" height="50" as="geometry" />
        </mxCell>
        <mxCell id="dzC-Ab5WEff3yVFOQwJt-79" style="edgeStyle=orthogonalEdgeStyle;rounded=0;orthogonalLoop=1;jettySize=auto;html=1;" edge="1" parent="1" source="dzC-Ab5WEff3yVFOQwJt-42" target="dzC-Ab5WEff3yVFOQwJt-45">
          <mxGeometry relative="1" as="geometry" />
        </mxCell>
        <mxCell id="dzC-Ab5WEff3yVFOQwJt-82" value="Нет" style="edgeLabel;html=1;align=center;verticalAlign=middle;resizable=0;points=[];" vertex="1" connectable="0" parent="dzC-Ab5WEff3yVFOQwJt-79">
          <mxGeometry x="-0.1665" relative="1" as="geometry">
            <mxPoint as="offset" />
          </mxGeometry>
        </mxCell>
        <mxCell id="dzC-Ab5WEff3yVFOQwJt-80" style="edgeStyle=orthogonalEdgeStyle;rounded=0;orthogonalLoop=1;jettySize=auto;html=1;entryX=0;entryY=0.5;entryDx=0;entryDy=0;exitX=0;exitY=0.5;exitDx=0;exitDy=0;" edge="1" parent="1" source="dzC-Ab5WEff3yVFOQwJt-42" target="dzC-Ab5WEff3yVFOQwJt-46">
          <mxGeometry relative="1" as="geometry">
            <Array as="points">
              <mxPoint x="190" y="490" />
              <mxPoint x="190" y="695" />
            </Array>
          </mxGeometry>
        </mxCell>
        <mxCell id="dzC-Ab5WEff3yVFOQwJt-83" value="Да" style="edgeLabel;html=1;align=center;verticalAlign=middle;resizable=0;points=[];" vertex="1" connectable="0" parent="dzC-Ab5WEff3yVFOQwJt-80">
          <mxGeometry x="-0.2413" y="-2" relative="1" as="geometry">
            <mxPoint as="offset" />
          </mxGeometry>
        </mxCell>
        <mxCell id="dzC-Ab5WEff3yVFOQwJt-42" value="Данные верны?" style="rhombus;whiteSpace=wrap;html=1;fontColor=#000000;fillColor=#ffffc0;strokeColor=#ff0000;" vertex="1" parent="1">
          <mxGeometry x="250" y="460" width="90" height="60" as="geometry" />
        </mxCell>
        <mxCell id="dzC-Ab5WEff3yVFOQwJt-75" style="edgeStyle=orthogonalEdgeStyle;rounded=0;orthogonalLoop=1;jettySize=auto;html=1;entryX=1;entryY=0.5;entryDx=0;entryDy=0;" edge="1" parent="1" source="dzC-Ab5WEff3yVFOQwJt-45" target="8">
          <mxGeometry relative="1" as="geometry" />
        </mxCell>
        <mxCell id="dzC-Ab5WEff3yVFOQwJt-45" value="Сообщить &#xa;о неверных данных" style="" vertex="1" parent="1">
          <mxGeometry x="230" y="590" width="130" height="50" as="geometry" />
        </mxCell>
        <mxCell id="dzC-Ab5WEff3yVFOQwJt-46" value="Отобразить меню" style="" vertex="1" parent="1">
          <mxGeometry x="230" y="670" width="130" height="50" as="geometry" />
        </mxCell>
        <mxCell id="dzC-Ab5WEff3yVFOQwJt-64" style="edgeStyle=orthogonalEdgeStyle;rounded=0;orthogonalLoop=1;jettySize=auto;html=1;entryX=0.5;entryY=0;entryDx=0;entryDy=0;" edge="1" parent="1" source="dzC-Ab5WEff3yVFOQwJt-47" target="dzC-Ab5WEff3yVFOQwJt-56">
          <mxGeometry relative="1" as="geometry" />
        </mxCell>
        <mxCell id="dzC-Ab5WEff3yVFOQwJt-65" style="edgeStyle=orthogonalEdgeStyle;rounded=0;orthogonalLoop=1;jettySize=auto;html=1;entryX=0.5;entryY=0;entryDx=0;entryDy=0;" edge="1" parent="1" source="dzC-Ab5WEff3yVFOQwJt-47" target="dzC-Ab5WEff3yVFOQwJt-55">
          <mxGeometry relative="1" as="geometry">
            <Array as="points">
              <mxPoint x="640" y="755" />
              <mxPoint x="520" y="755" />
            </Array>
          </mxGeometry>
        </mxCell>
        <mxCell id="dzC-Ab5WEff3yVFOQwJt-66" style="edgeStyle=orthogonalEdgeStyle;rounded=0;orthogonalLoop=1;jettySize=auto;html=1;entryX=0.5;entryY=0;entryDx=0;entryDy=0;" edge="1" parent="1" source="dzC-Ab5WEff3yVFOQwJt-47" target="dzC-Ab5WEff3yVFOQwJt-57">
          <mxGeometry relative="1" as="geometry">
            <Array as="points">
              <mxPoint x="730" y="755" />
              <mxPoint x="845" y="755" />
            </Array>
          </mxGeometry>
        </mxCell>
        <mxCell id="dzC-Ab5WEff3yVFOQwJt-47" value="" style="shape=line;html=1;strokeWidth=6;strokeColor=#ff0000;" vertex="1" parent="1">
          <mxGeometry x="585" y="710" width="200" height="10" as="geometry" />
        </mxCell>
        <mxCell id="dzC-Ab5WEff3yVFOQwJt-73" style="edgeStyle=orthogonalEdgeStyle;rounded=0;orthogonalLoop=1;jettySize=auto;html=1;entryX=0.5;entryY=0;entryDx=0;entryDy=0;" edge="1" parent="1" source="dzC-Ab5WEff3yVFOQwJt-53" target="dzC-Ab5WEff3yVFOQwJt-71">
          <mxGeometry relative="1" as="geometry">
            <Array as="points">
              <mxPoint x="685" y="940" />
              <mxPoint x="295" y="940" />
            </Array>
          </mxGeometry>
        </mxCell>
        <mxCell id="dzC-Ab5WEff3yVFOQwJt-53" value="" style="shape=line;html=1;strokeWidth=6;strokeColor=#ff0000;" vertex="1" parent="1">
          <mxGeometry x="585" y="910" width="200" height="10" as="geometry" />
        </mxCell>
        <mxCell id="dzC-Ab5WEff3yVFOQwJt-69" style="edgeStyle=orthogonalEdgeStyle;rounded=0;orthogonalLoop=1;jettySize=auto;html=1;" edge="1" parent="1" source="dzC-Ab5WEff3yVFOQwJt-55" target="dzC-Ab5WEff3yVFOQwJt-53">
          <mxGeometry relative="1" as="geometry">
            <Array as="points">
              <mxPoint x="520" y="875" />
              <mxPoint x="640" y="875" />
            </Array>
          </mxGeometry>
        </mxCell>
        <mxCell id="dzC-Ab5WEff3yVFOQwJt-55" value="Выбрать &#xa;пользователей" style="" vertex="1" parent="1">
          <mxGeometry x="455" y="790" width="130" height="50" as="geometry" />
        </mxCell>
        <mxCell id="dzC-Ab5WEff3yVFOQwJt-68" style="edgeStyle=orthogonalEdgeStyle;rounded=0;orthogonalLoop=1;jettySize=auto;html=1;" edge="1" parent="1" source="dzC-Ab5WEff3yVFOQwJt-56" target="dzC-Ab5WEff3yVFOQwJt-53">
          <mxGeometry relative="1" as="geometry" />
        </mxCell>
        <mxCell id="dzC-Ab5WEff3yVFOQwJt-56" value="Выбрать предметы" style="" vertex="1" parent="1">
          <mxGeometry x="620" y="790" width="130" height="50" as="geometry" />
        </mxCell>
        <mxCell id="dzC-Ab5WEff3yVFOQwJt-70" style="edgeStyle=orthogonalEdgeStyle;rounded=0;orthogonalLoop=1;jettySize=auto;html=1;" edge="1" parent="1" source="dzC-Ab5WEff3yVFOQwJt-57" target="dzC-Ab5WEff3yVFOQwJt-53">
          <mxGeometry relative="1" as="geometry">
            <Array as="points">
              <mxPoint x="845" y="875" />
              <mxPoint x="730" y="875" />
            </Array>
          </mxGeometry>
        </mxCell>
        <mxCell id="dzC-Ab5WEff3yVFOQwJt-57" value="Выбрать роли" style="" vertex="1" parent="1">
          <mxGeometry x="780" y="790" width="130" height="50" as="geometry" />
        </mxCell>
        <mxCell id="dzC-Ab5WEff3yVFOQwJt-62" style="edgeStyle=orthogonalEdgeStyle;rounded=0;orthogonalLoop=1;jettySize=auto;html=1;" edge="1" parent="1" source="dzC-Ab5WEff3yVFOQwJt-46" target="dzC-Ab5WEff3yVFOQwJt-47">
          <mxGeometry relative="1" as="geometry">
            <Array as="points">
              <mxPoint x="680" y="695" />
            </Array>
          </mxGeometry>
        </mxCell>
        <mxCell id="dzC-Ab5WEff3yVFOQwJt-74" style="edgeStyle=orthogonalEdgeStyle;rounded=0;orthogonalLoop=1;jettySize=auto;html=1;entryX=0.5;entryY=0;entryDx=0;entryDy=0;" edge="1" parent="1" source="dzC-Ab5WEff3yVFOQwJt-71" target="dzC-Ab5WEff3yVFOQwJt-72">
          <mxGeometry relative="1" as="geometry" />
        </mxCell>
        <mxCell id="dzC-Ab5WEff3yVFOQwJt-71" value="Отобразить &#xa;список объектов" style="" vertex="1" parent="1">
          <mxGeometry x="230" y="990" width="130" height="50" as="geometry" />
        </mxCell>
        <mxCell id="dzC-Ab5WEff3yVFOQwJt-72" value="" style="ellipse;html=1;shape=endState;fillColor=#000000;strokeColor=#ff0000;" vertex="1" parent="1">
          <mxGeometry x="280" y="1160" width="30" height="30" as="geometry" />
        </mxCell>
        <mxCell id="dzC-Ab5WEff3yVFOQwJt-77" style="edgeStyle=orthogonalEdgeStyle;rounded=0;orthogonalLoop=1;jettySize=auto;html=1;entryX=0;entryY=0.5;entryDx=0;entryDy=0;exitX=0.5;exitY=1;exitDx=0;exitDy=0;" edge="1" parent="1" source="7" target="8">
          <mxGeometry relative="1" as="geometry" />
        </mxCell>
      </root>
    </mxGraphModel>
  </diagram>
</mxfile>
